<mxfile host="app.diagrams.net" modified="2025-03-28T08:15:21.437Z" agent="Mozilla/5.0 (Windows NT 10.0; Win64; x64) AppleWebKit/537.36 (KHTML, like Gecko) Chrome/134.0.0.0 Safari/537.36" etag="_W6Y2iZ0YuJaYi_jm1dR" border="50" scale="3" compressed="false" locked="false" version="23.1.1" type="github">
  <diagram name="Blank" id="YmL12bMKpDGza6XwsDPr">
    <mxGraphModel dx="1680" dy="434" grid="0" gridSize="10" guides="1" tooltips="1" connect="1" arrows="1" fold="1" page="0" pageScale="1" pageWidth="827" pageHeight="1169" background="none" math="1" shadow="0">
      <root>
        <mxCell id="X5NqExCQtvZxIxQ7pmgY-0" />
        <mxCell id="1" parent="X5NqExCQtvZxIxQ7pmgY-0" />
        <mxCell id="V1kNua-VAha1UeF921uI-2" value="" style="rounded=0;whiteSpace=wrap;html=1;fillColor=#f5f5f5;strokeColor=#666666;fontColor=#333333;" vertex="1" parent="1">
          <mxGeometry x="-713" y="266" width="721" height="327" as="geometry" />
        </mxCell>
        <mxCell id="V1kNua-VAha1UeF921uI-6" value="" style="rounded=1;whiteSpace=wrap;html=1;fillColor=#dae8fc;strokeColor=#6c8ebf;" vertex="1" parent="1">
          <mxGeometry x="-623" y="375" width="137" height="128" as="geometry" />
        </mxCell>
        <mxCell id="V1kNua-VAha1UeF921uI-7" value="" style="rounded=0;whiteSpace=wrap;html=1;fillColor=#dae8fc;strokeColor=#6c8ebf;" vertex="1" parent="1">
          <mxGeometry x="-455" y="303" width="281" height="129" as="geometry" />
        </mxCell>
        <mxCell id="V1kNua-VAha1UeF921uI-4" value="" style="rounded=1;whiteSpace=wrap;html=1;fillColor=#1ba1e2;strokeColor=#006EAF;fontColor=#ffffff;" vertex="1" parent="1">
          <mxGeometry x="-435" y="320" width="137" height="98" as="geometry" />
        </mxCell>
        <mxCell id="V1kNua-VAha1UeF921uI-3" value="" style="shape=cylinder3;whiteSpace=wrap;html=1;boundedLbl=1;backgroundOutline=1;size=15;fillColor=#e1d5e7;strokeColor=#9673a6;" vertex="1" parent="1">
          <mxGeometry x="-272" y="319" width="60" height="84" as="geometry" />
        </mxCell>
        <mxCell id="V1kNua-VAha1UeF921uI-9" value="" style="rounded=0;whiteSpace=wrap;html=1;fillColor=#dae8fc;strokeColor=#6c8ebf;" vertex="1" parent="1">
          <mxGeometry x="-455" y="445" width="406" height="120" as="geometry" />
        </mxCell>
        <mxCell id="V1kNua-VAha1UeF921uI-5" value="" style="rounded=1;whiteSpace=wrap;html=1;fillColor=#1ba1e2;strokeColor=#006EAF;fontColor=#ffffff;" vertex="1" parent="1">
          <mxGeometry x="-437" y="466" width="137" height="97" as="geometry" />
        </mxCell>
        <mxCell id="V1kNua-VAha1UeF921uI-10" style="edgeStyle=orthogonalEdgeStyle;rounded=0;orthogonalLoop=1;jettySize=auto;html=1;exitX=0.5;exitY=1;exitDx=0;exitDy=0;" edge="1" parent="1" source="V1kNua-VAha1UeF921uI-2" target="V1kNua-VAha1UeF921uI-2">
          <mxGeometry relative="1" as="geometry" />
        </mxCell>
        <mxCell id="V1kNua-VAha1UeF921uI-8" value="" style="shape=cylinder3;whiteSpace=wrap;html=1;boundedLbl=1;backgroundOutline=1;size=15;fillColor=#e1d5e7;strokeColor=#9673a6;" vertex="1" parent="1">
          <mxGeometry x="-270" y="465" width="60" height="82" as="geometry" />
        </mxCell>
        <mxCell id="V1kNua-VAha1UeF921uI-12" value="Load Balancer" style="text;html=1;strokeColor=none;fillColor=none;align=center;verticalAlign=middle;whiteSpace=wrap;rounded=0;" vertex="1" parent="1">
          <mxGeometry x="-589" y="405" width="60" height="30" as="geometry" />
        </mxCell>
        <mxCell id="V1kNua-VAha1UeF921uI-13" value="MySQL" style="text;html=1;strokeColor=none;fillColor=none;align=center;verticalAlign=middle;whiteSpace=wrap;rounded=0;" vertex="1" parent="1">
          <mxGeometry x="-272" y="356" width="60" height="30" as="geometry" />
        </mxCell>
        <mxCell id="V1kNua-VAha1UeF921uI-14" value="MySQL" style="text;html=1;strokeColor=none;fillColor=none;align=center;verticalAlign=middle;whiteSpace=wrap;rounded=0;" vertex="1" parent="1">
          <mxGeometry x="-268" y="494" width="60" height="30" as="geometry" />
        </mxCell>
        <mxCell id="V1kNua-VAha1UeF921uI-15" value="Application Server" style="text;html=1;strokeColor=none;fillColor=none;align=center;verticalAlign=middle;whiteSpace=wrap;rounded=0;" vertex="1" parent="1">
          <mxGeometry x="-426" y="345" width="115" height="30" as="geometry" />
        </mxCell>
        <mxCell id="V1kNua-VAha1UeF921uI-16" value="Application Server" style="text;html=1;strokeColor=none;fillColor=none;align=center;verticalAlign=middle;whiteSpace=wrap;rounded=0;" vertex="1" parent="1">
          <mxGeometry x="-425" y="490" width="115" height="30" as="geometry" />
        </mxCell>
        <mxCell id="V1kNua-VAha1UeF921uI-21" value="" style="whiteSpace=wrap;html=1;aspect=fixed;fillColor=#ffe6cc;strokeColor=#d79b00;" vertex="1" parent="1">
          <mxGeometry x="-154" y="471" width="89" height="89" as="geometry" />
        </mxCell>
        <mxCell id="V1kNua-VAha1UeF921uI-22" value="Rabbit MQ" style="text;html=1;strokeColor=none;fillColor=none;align=center;verticalAlign=middle;whiteSpace=wrap;rounded=0;" vertex="1" parent="1">
          <mxGeometry x="-144" y="491" width="60" height="30" as="geometry" />
        </mxCell>
        <mxCell id="V1kNua-VAha1UeF921uI-23" value="OLTP Server" style="text;html=1;strokeColor=none;fillColor=none;align=center;verticalAlign=middle;whiteSpace=wrap;rounded=0;" vertex="1" parent="1">
          <mxGeometry x="-344.5" y="296" width="88.5" height="30" as="geometry" />
        </mxCell>
        <mxCell id="V1kNua-VAha1UeF921uI-24" value="OLAP Server" style="text;html=1;strokeColor=none;fillColor=none;align=center;verticalAlign=middle;whiteSpace=wrap;rounded=0;" vertex="1" parent="1">
          <mxGeometry x="-332.5" y="440" width="88.5" height="30" as="geometry" />
        </mxCell>
        <mxCell id="V1kNua-VAha1UeF921uI-25" value="" style="endArrow=classic;startArrow=classic;html=1;rounded=0;entryX=-0.007;entryY=0.808;entryDx=0;entryDy=0;entryPerimeter=0;" edge="1" parent="1">
          <mxGeometry width="50" height="50" relative="1" as="geometry">
            <mxPoint x="-485" y="399" as="sourcePoint" />
            <mxPoint x="-455.9670000000001" y="399.96000000000004" as="targetPoint" />
          </mxGeometry>
        </mxCell>
        <mxCell id="V1kNua-VAha1UeF921uI-26" value="" style="endArrow=classic;startArrow=classic;html=1;rounded=0;entryX=-0.007;entryY=0.808;entryDx=0;entryDy=0;entryPerimeter=0;" edge="1" parent="1">
          <mxGeometry width="50" height="50" relative="1" as="geometry">
            <mxPoint x="-486" y="462" as="sourcePoint" />
            <mxPoint x="-457" y="463" as="targetPoint" />
          </mxGeometry>
        </mxCell>
        <mxCell id="V1kNua-VAha1UeF921uI-27" value="" style="endArrow=classic;startArrow=classic;html=1;rounded=0;entryX=-0.007;entryY=0.808;entryDx=0;entryDy=0;entryPerimeter=0;" edge="1" parent="1">
          <mxGeometry width="50" height="50" relative="1" as="geometry">
            <mxPoint x="-299" y="368" as="sourcePoint" />
            <mxPoint x="-270" y="369" as="targetPoint" />
          </mxGeometry>
        </mxCell>
        <mxCell id="V1kNua-VAha1UeF921uI-33" value="Actor" style="shape=umlActor;verticalLabelPosition=bottom;verticalAlign=top;html=1;outlineConnect=0;" vertex="1" parent="1">
          <mxGeometry x="-711" y="407" width="30" height="64" as="geometry" />
        </mxCell>
        <mxCell id="V1kNua-VAha1UeF921uI-36" value="" style="endArrow=classic;startArrow=classic;html=1;rounded=0;entryX=-0.007;entryY=0.808;entryDx=0;entryDy=0;entryPerimeter=0;exitX=0.033;exitY=0.547;exitDx=0;exitDy=0;exitPerimeter=0;" edge="1" parent="1" source="V1kNua-VAha1UeF921uI-2">
          <mxGeometry width="50" height="50" relative="1" as="geometry">
            <mxPoint x="-653" y="444" as="sourcePoint" />
            <mxPoint x="-623.9670000000001" y="444.96000000000004" as="targetPoint" />
          </mxGeometry>
        </mxCell>
        <mxCell id="V1kNua-VAha1UeF921uI-40" value="" style="endArrow=classic;html=1;rounded=0;entryX=0.736;entryY=0.9;entryDx=0;entryDy=0;entryPerimeter=0;exitX=1;exitY=0.928;exitDx=0;exitDy=0;exitPerimeter=0;" edge="1" parent="1" source="V1kNua-VAha1UeF921uI-5" target="V1kNua-VAha1UeF921uI-9">
          <mxGeometry width="50" height="50" relative="1" as="geometry">
            <mxPoint x="-370" y="452" as="sourcePoint" />
            <mxPoint x="-320" y="402" as="targetPoint" />
          </mxGeometry>
        </mxCell>
        <mxCell id="V1kNua-VAha1UeF921uI-41" value="" style="curved=1;endArrow=classic;html=1;rounded=0;exitX=0.321;exitY=1;exitDx=0;exitDy=0;exitPerimeter=0;entryX=0.5;entryY=0;entryDx=0;entryDy=0;" edge="1" parent="1">
          <mxGeometry width="50" height="50" relative="1" as="geometry">
            <mxPoint x="-375.0229999999999" y="415" as="sourcePoint" />
            <mxPoint x="-93.5" y="468" as="targetPoint" />
            <Array as="points">
              <mxPoint x="-387" y="444" />
              <mxPoint x="-203" y="439" />
              <mxPoint x="-93" y="442" />
            </Array>
          </mxGeometry>
        </mxCell>
        <mxCell id="V1kNua-VAha1UeF921uI-44" value="" style="endArrow=classic;html=1;rounded=0;exitX=0.5;exitY=1;exitDx=0;exitDy=0;exitPerimeter=0;" edge="1" parent="1" source="V1kNua-VAha1UeF921uI-3">
          <mxGeometry width="50" height="50" relative="1" as="geometry">
            <mxPoint x="-370" y="452" as="sourcePoint" />
            <mxPoint x="-242" y="462" as="targetPoint" />
          </mxGeometry>
        </mxCell>
        <mxCell id="V1kNua-VAha1UeF921uI-46" value="Notifications" style="text;html=1;strokeColor=none;fillColor=none;align=center;verticalAlign=middle;whiteSpace=wrap;rounded=0;arcSize=12;imageHeight=24;imageWidth=24;spacing=2;fontSize=10;" vertex="1" parent="1">
          <mxGeometry x="-243" y="432" width="224" height="8" as="geometry" />
        </mxCell>
        <mxCell id="V1kNua-VAha1UeF921uI-47" value="Notifications" style="text;html=1;strokeColor=none;fillColor=none;align=center;verticalAlign=middle;whiteSpace=wrap;rounded=0;fontSize=10;" vertex="1" parent="1">
          <mxGeometry x="-335" y="557" width="224" height="8" as="geometry" />
        </mxCell>
        <mxCell id="V1kNua-VAha1UeF921uI-48" value="Replication" style="text;html=1;strokeColor=none;fillColor=none;align=center;verticalAlign=middle;whiteSpace=wrap;rounded=0;strokeWidth=1;arcSize=12;imageHeight=24;imageWidth=24;fontSize=10;" vertex="1" parent="1">
          <mxGeometry x="-297" y="408" width="110" height="34" as="geometry" />
        </mxCell>
        <mxCell id="V1kNua-VAha1UeF921uI-49" value="" style="rounded=0;whiteSpace=wrap;html=1;fillColor=#f5f5f5;strokeColor=#666666;fontColor=#333333;" vertex="1" parent="1">
          <mxGeometry x="-712" y="626" width="721" height="330" as="geometry" />
        </mxCell>
        <mxCell id="V1kNua-VAha1UeF921uI-50" value="On Site Server" style="text;html=1;strokeColor=none;fillColor=none;align=center;verticalAlign=middle;whiteSpace=wrap;rounded=0;fontSize=14;" vertex="1" parent="1">
          <mxGeometry x="-556" y="265" width="370" height="30" as="geometry" />
        </mxCell>
        <mxCell id="V1kNua-VAha1UeF921uI-51" value="DC Server" style="text;html=1;strokeColor=none;fillColor=none;align=center;verticalAlign=middle;whiteSpace=wrap;rounded=0;fontSize=14;" vertex="1" parent="1">
          <mxGeometry x="-546" y="623" width="370" height="30" as="geometry" />
        </mxCell>
        <mxCell id="V1kNua-VAha1UeF921uI-52" value="" style="endArrow=classic;startArrow=classic;html=1;rounded=0;entryX=0.189;entryY=0.033;entryDx=0;entryDy=0;entryPerimeter=0;exitX=0.329;exitY=0.997;exitDx=0;exitDy=0;exitPerimeter=0;" edge="1" parent="1">
          <mxGeometry width="50" height="50" relative="1" as="geometry">
            <mxPoint x="-382.79099999999994" y="592.019" as="sourcePoint" />
            <mxPoint x="-383.06999999999994" y="623.99" as="targetPoint" />
          </mxGeometry>
        </mxCell>
        <mxCell id="V1kNua-VAha1UeF921uI-53" value="MPLS Server Connectivity" style="text;html=1;strokeColor=none;fillColor=none;align=center;verticalAlign=middle;whiteSpace=wrap;rounded=0;fontSize=10;" vertex="1" parent="1">
          <mxGeometry x="-445.5" y="593" width="246.5" height="30" as="geometry" />
        </mxCell>
        <mxCell id="V1kNua-VAha1UeF921uI-54" value="ETL APPLICATION" style="rounded=1;whiteSpace=wrap;html=1;fillColor=#1ba1e2;strokeColor=#006EAF;fontColor=#ffffff;" vertex="1" parent="1">
          <mxGeometry x="-687" y="651" width="118" height="55" as="geometry" />
        </mxCell>
        <mxCell id="V1kNua-VAha1UeF921uI-55" value="" style="rounded=1;whiteSpace=wrap;html=1;fillColor=#1ba1e2;strokeColor=#006EAF;fontColor=#ffffff;" vertex="1" parent="1">
          <mxGeometry x="-689" y="713" width="119" height="51" as="geometry" />
        </mxCell>
        <mxCell id="V1kNua-VAha1UeF921uI-56" value="" style="whiteSpace=wrap;html=1;aspect=fixed;fillColor=#ffe6cc;strokeColor=#d79b00;" vertex="1" parent="1">
          <mxGeometry x="-144" y="665" width="89" height="89" as="geometry" />
        </mxCell>
        <mxCell id="V1kNua-VAha1UeF921uI-57" value="" style="rounded=1;whiteSpace=wrap;html=1;fillColor=#1ba1e2;strokeColor=#006EAF;fontColor=#ffffff;" vertex="1" parent="1">
          <mxGeometry x="-689" y="771" width="120" height="50" as="geometry" />
        </mxCell>
        <mxCell id="V1kNua-VAha1UeF921uI-58" value="" style="rounded=1;whiteSpace=wrap;html=1;fillColor=#1ba1e2;strokeColor=#006EAF;fontColor=#ffffff;" vertex="1" parent="1">
          <mxGeometry x="-690" y="831" width="120" height="50" as="geometry" />
        </mxCell>
        <mxCell id="V1kNua-VAha1UeF921uI-59" value="" style="rounded=1;whiteSpace=wrap;html=1;fillColor=#1ba1e2;strokeColor=#006EAF;fontColor=#ffffff;" vertex="1" parent="1">
          <mxGeometry x="-690" y="891" width="120" height="50" as="geometry" />
        </mxCell>
      </root>
    </mxGraphModel>
  </diagram>
</mxfile>
